<?xml version="1.0" encoding="UTF-8"?>
<svg width="28px" height="29px" viewBox="0 0 28 29" version="1.1" xmlns="http://www.w3.org/2000/svg" xmlns:xlink="http://www.w3.org/1999/xlink">
    <title>增加</title>
    <defs>
        <filter id="filter-1">
            <feColorMatrix in="SourceGraphic" type="matrix" values="0 0 0 0 0.227451 0 0 0 0 0.525490 0 0 0 0 0.949020 0 0 0 1.000000 0"></feColorMatrix>
        </filter>
    </defs>
    <g id="页面-1" stroke="none" stroke-width="1" fill="none" fill-rule="evenodd">
        <g id="首页-未登录" transform="translate(-157.000000, -827.000000)">
            <g id="编组-32" transform="translate(31.000000, 755.000000)">
                <g id="编组-8" transform="translate(30.000000, 28.000000)">
                    <g id="增加" transform="translate(96.000000, 42.800000)" filter="url(#filter-1)">
                        <g transform="translate(0.000000, 2.000000)">
                            <path d="M25.55,2.1 C25.7218219,2.1 25.8647259,2.22381261 25.894361,2.38708706 L25.9,2.45 L25.9,25.55 C25.9,25.7218219 25.7761873,25.8647259 25.6129129,25.894361 L25.55,25.9 L2.45,25.9 C2.27817808,25.9 2.13527414,25.7761873 2.10563897,25.6129129 L2.1,25.55 L2.1,2.45 C2.1,2.27817808 2.22381261,2.13527414 2.38708706,2.10563897 L2.45,2.1 L25.55,2.1 Z M23.1,4.9 L4.9,4.9 L4.9,23.1 L23.1,23.1 L23.1,4.9 Z M15.05,8.4 C15.2432997,8.4 15.4,8.55670032 15.4,8.75 L15.4,12.6 L19.25,12.6 C19.4432997,12.6 19.6,12.7567003 19.6,12.95 L19.6,15.05 C19.6,15.2432997 19.4432997,15.4 19.25,15.4 L15.4,15.4 L15.4,19.25 C15.4,19.4432997 15.2432997,19.6 15.05,19.6 L12.95,19.6 C12.7567003,19.6 12.6,19.4432997 12.6,19.25 L12.6,15.4 L8.75,15.4 C8.55670032,15.4 8.4,15.2432997 8.4,15.05 L8.4,12.95 C8.4,12.7567003 8.55670032,12.6 8.75,12.6 L12.6,12.6 L12.6,8.75 C12.6,8.55670032 12.7567003,8.4 12.95,8.4 L15.05,8.4 Z" id="形状" fill="#62667A" fill-rule="nonzero"></path>
                            <rect id="矩形" fill="#000000" fill-rule="nonzero" opacity="0" x="0" y="0" width="28" height="28"></rect>
                        </g>
                    </g>
                </g>
            </g>
        </g>
    </g>
</svg>